<svg xmlns="http://www.w3.org/2000/svg" version="1.1" xmlns:xlink="http://www.w3.org/1999/xlink" xmlns:svgjs="http://svgjs.dev/svgjs" width="1500" height="310" viewBox="0 0 1500 310"><g transform="matrix(1,0,0,1,-0.9084522071641459,-1.193813193506486)"><svg viewBox="0 0 396 82" data-background-color="#dfe2e2" preserveAspectRatio="xMidYMid meet" height="310" width="1500" xmlns="http://www.w3.org/2000/svg" xmlns:xlink="http://www.w3.org/1999/xlink"><g id="tight-bounds" transform="matrix(1,0,0,1,0.24008861730862918,0.3157828447339739)"><svg viewBox="0 0 395.52 81.36843431053202" height="81.36843431053202" width="395.52"><g><svg viewBox="0 0 395.52 81.36843431053202" height="81.36843431053202" width="395.52"><g><svg viewBox="0 0 395.52 81.36843431053202" height="81.36843431053202" width="395.52"><g><svg viewBox="0 0 395.52 81.36843431053202" height="81.36843431053202" width="395.52"><g id="textblocktransform"><svg viewBox="0 0 395.52 81.36843431053202" height="81.36843431053202" width="395.52" id="textblock"><g><svg viewBox="0 0 395.52 81.36843431053202" height="81.36843431053202" width="395.52"><path d="M394.594 17.452C392.735 9.006 387.435 6.658 387.435 6.658 371.165-2.041 350.86-0.166 332.619 1.084 300.414 1.134 268.339 2.992 236.208 3.989 168.767 4.141 100.749 1.641 33.643 7.807 27.339 9.699-6.54 8.178 1.121 18.533 3.129 22.841 10.456 27.621 10.232 31.574 11.236 32.266 12.631 30.678 13.226 31.675 15.309 34.361 18.711 33.094 21.501 34.682 17.614 38.922 20.403 42.452 23.062 46.152 18.377 47.114 12.371 46.658 9.675 49.851 9.396 52.165 7.89 51.726 6.235 51.625 5.026 51.557 2.59 51.81 2.999 52.537 4.394 55.02-1.594 56.456 2.162 58.888-0.422 61.523 3.948 63.804 3.353 66.658 3.278 67.233 3.687 67.723 4.338 67.858 7.22 68.584 3.018 70.003 3.464 71.54 33.029 82.047 65.104 74.784 95.394 79.615 103.259 76.236 97.346 80.814 100.489 80.105 102.943 79.277 104.728 82.706 107.499 80.763 107.927 80.206 107.276 78.888 108.8 79.142 109.6 79.277 110.307 79.243 110.418 78.466 110.586 77.3 109.117 78.027 108.726 77.419 112.947 74.344 111.906 81.659 115.866 81.355 115.68 80.459 114.528 79.175 116.889 79.344 119.232 78.061 119.306 76.996 121.389 79.885 121.463 80.51 121.835 80.949 122.43 81.253 128.938 78.111 135.409 82.368 142.233 80.949 146.417 79.395 150.433 81.794 154.672 81.202 156.16 80.73 157.666 79.885 159.098 81.304 176.632 81.608 195.319 80.341 211.943 81.355 256.364 79.463 303.836 82.132 350.674 79.632 361.719 78.669 373.192 77.3 383.958 76.202 383.958 76.202 392.679 73.196 392.679 59.682S394.538 47.858 394.817 37.097C395.096 26.337 396.398 25.898 394.538 17.452Z" opacity="1" fill="#6ea3ce" data-fill-palette-color="tertiary"></path><g transform="matrix(1,0,0,1,55.76832,26.230666666666668)"><svg width="283.98335999999995" viewBox="4.3 -49.3 491.15999999999997 50" height="28.907100977198695" data-palette-color="#dfe2e2"><path d="M18.9-12L4.7-12Q4.3-13 4.3-14.38 4.3-15.75 4.7-16.65L4.7-16.65 18.9-16.65Q19.3-15.75 19.3-14.38 19.3-13 18.9-12L18.9-12ZM54.95 0.25L54.95 0.25Q54.45 0.25 53.87 0.18 53.3 0.1 52.65 0L52.65 0 52.65-31.9 40.8-31.9Q40-34.25 40.8-36.1L40.8-36.1 69.15-36.1Q69.55-35.3 69.55-34.1 69.55-32.9 69.15-31.9L69.15-31.9 57.35-31.9 57.35 0Q56.7 0.1 56.1 0.18 55.5 0.25 54.95 0.25ZM71.04-3.6L71.04-3.6Q72.09-3.6 73.29-4.25 74.49-4.9 75.54-6.25L75.54-6.25Q76.99-8.25 77.57-10.95 78.14-13.65 78.14-16.2L78.14-16.2 78.14-23.6Q78.59-23.75 79.19-23.85 79.79-23.95 80.44-23.95L80.44-23.95Q81.59-23.95 82.69-23.6L82.69-23.6 82.69-12.05Q82.69-7.7 84.09-5.73 85.49-3.75 88.49-3.75L88.49-3.75Q95.64-3.75 95.64-14.2L95.64-14.2 95.64-23.6Q96.04-23.75 96.64-23.85 97.24-23.95 97.89-23.95L97.89-23.95Q99.09-23.95 100.19-23.6L100.19-23.6 100.19-9.2Q100.19-6.55 101.02-5.08 101.84-3.6 103.79-3.6L103.79-3.6Q104.64-3.6 104.94-2.9 105.24-2.2 105.24-1.4L105.24-1.4Q105.24-0.6 104.82 0.05 104.39 0.7 103.44 0.7L103.44 0.7Q98.64 0.7 96.94-3.5L96.94-3.5Q95.54-1.45 93.34-0.38 91.14 0.7 88.14 0.7L88.14 0.7Q81.79 0.7 79.44-4.7L79.44-4.7Q78.64-3.25 77.64-2.25L77.64-2.25Q76.29-0.9 74.52-0.1 72.74 0.7 70.69 0.7L70.69 0.7Q69.99 0.7 69.62 0.03 69.24-0.65 69.24-1.45L69.24-1.45Q69.24-2.3 69.67-2.95 70.09-3.6 71.04-3.6ZM103.79-3.6L103.79-3.6Q105.04-3.6 106.67-4.35 108.29-5.1 109.84-6.9 111.39-8.7 112.39-11.78 113.39-14.85 113.39-19.5L113.39-19.5 113.39-24.3 109.69-24.3Q109.34-25.1 109.34-26.3 109.34-27.5 109.69-28.3L109.69-28.3 113.39-28.3 113.39-37.15Q114.34-37.5 115.69-37.5L115.69-37.5Q116.89-37.5 117.99-37.15L117.99-37.15 117.99-28.3 125.44-28.3Q125.84-27.5 125.84-26.3 125.84-25.1 125.44-24.3L125.44-24.3 117.99-24.3 117.99-13.95Q117.99-8.95 119.52-6.28 121.04-3.6 123.84-3.6L123.84-3.6Q125.29-3.6 125.29-1.4L125.29-1.4Q125.29-0.45 124.81 0.13 124.34 0.7 123.49 0.7L123.49 0.7Q120.24 0.7 118.02-1.15 115.79-3 114.74-6.3L114.74-6.3Q112.64-2.7 109.59-1 106.54 0.7 103.44 0.7L103.44 0.7Q102.79 0.7 102.39 0.08 101.99-0.55 101.99-1.45L101.99-1.45Q101.99-2.4 102.44-3 102.89-3.6 103.79-3.6ZM123.84-3.6L123.84-3.6Q125.49-3.6 127.06-5.18 128.64-6.75 129.74-9.4L129.74-9.4Q129.54-10.6 129.54-11.85L129.54-11.85Q129.54-15.45 131.09-18.25 132.64-21.05 135.31-22.68 137.99-24.3 141.34-24.3L141.34-24.3Q144.69-24.3 147.34-22.68 149.99-21.05 151.51-18.25 153.04-15.45 153.04-11.85L153.04-11.85Q153.04-8.25 151.51-5.4 149.99-2.55 147.36-0.93 144.74 0.7 141.34 0.7L141.34 0.7Q138.29 0.7 135.81-0.63 133.34-1.95 131.74-4.25L131.74-4.25Q128.64 0.7 123.49 0.7L123.49 0.7Q122.84 0.7 122.44 0.1 122.04-0.5 122.04-1.45L122.04-1.45Q122.04-3.6 123.84-3.6ZM141.29-3.6L141.29-3.6Q144.49-3.6 146.41-5.85 148.34-8.1 148.34-11.85L148.34-11.85Q148.34-13.7 147.79-15.25L147.79-15.25Q144.79-15.35 142.36-16.45 139.94-17.55 138.54-19.45L138.54-19.45Q136.54-18.6 135.39-16.57 134.24-14.55 134.24-11.75L134.24-11.75Q134.24-8.1 136.16-5.85 138.09-3.6 141.29-3.6ZM155.03 0.7L155.03 0.7Q154.38 0.7 153.99 0.1 153.59-0.5 153.59-1.45L153.59-1.45Q153.59-3.6 155.38-3.6L155.38-3.6Q157.59-3.6 159.31-5.43 161.03-7.25 162.06-10.4 163.09-13.55 163.09-17.4L163.09-17.4Q163.09-18.3 162.99-19.05 162.88-19.8 162.74-20.3L162.74-20.3Q162.28-20.75 161.76-21.75 161.24-22.75 160.86-23.88 160.49-25 160.49-25.7L160.49-25.7Q161.09-26.65 162.41-27.18 163.74-27.7 165.34-27.45L165.34-27.45Q166.28-25.7 166.88-23.05L166.88-23.05Q168.38-23.1 170.94-23.7L170.94-23.7Q172.53-24.05 173.51-24.18 174.49-24.3 175.19-24.3L175.19-24.3Q177.88-24.3 179.44-22.28 180.99-20.25 180.99-16.8L180.99-16.8 180.99-8.75Q180.99-6 181.71-4.8 182.44-3.6 184.03-3.6L184.03-3.6Q184.74-3.6 185.11-3 185.49-2.4 185.49-1.4L185.49-1.4Q185.49-0.6 185.06 0.05 184.63 0.7 183.69 0.7L183.69 0.7Q176.44 0.7 176.44-8.2L176.44-8.2 176.44-15.95Q176.44-18.2 175.94-19.1 175.44-20 174.13-20L174.13-20Q173.69-20 173.13-19.9 172.59-19.8 171.19-19.5L171.19-19.5Q168.74-19 167.49-18.9L167.49-18.9Q167.53-18.1 167.53-17.3L167.53-17.3Q167.53-11.9 165.99-7.85 164.44-3.8 161.61-1.55 158.78 0.7 155.03 0.7ZM184.03-3.6L184.03-3.6Q185.08-3.6 186.28-4.25 187.48-4.9 188.53-6.25L188.53-6.25Q189.78-7.95 190.36-10.15 190.93-12.35 191.08-14.6L191.08-14.6 191.08-23.6Q191.53-23.75 192.13-23.85 192.73-23.95 193.38-23.95L193.38-23.95Q194.53-23.95 195.63-23.6L195.63-23.6 195.63-9.2Q195.63-6.55 196.46-5.08 197.28-3.6 199.23-3.6L199.23-3.6Q200.08-3.6 200.38-2.9 200.68-2.2 200.68-1.4L200.68-1.4Q200.68-0.6 200.26 0.05 199.83 0.7 198.88 0.7L198.88 0.7Q193.68 0.7 192.13-4.2L192.13-4.2Q191.43-3.05 190.63-2.25L190.63-2.25Q189.28-0.9 187.51-0.1 185.73 0.7 183.68 0.7L183.68 0.7Q182.98 0.7 182.61 0.03 182.23-0.65 182.23-1.45L182.23-1.45Q182.23-2.3 182.66-2.95 183.08-3.6 184.03-3.6ZM193.43-30.8L193.43-30.8Q192.03-30.8 191.03-31.8 190.03-32.8 190.03-34.2L190.03-34.2Q190.03-35.7 191.01-36.65 191.98-37.6 193.43-37.6L193.43-37.6Q194.93-37.6 195.88-36.65 196.83-35.7 196.83-34.2L196.83-34.2Q196.83-32.75 195.86-31.78 194.88-30.8 193.43-30.8ZM199.23-3.6L199.23-3.6Q200.93-3.6 202.56-5.28 204.18-6.95 205.28-9.8L205.28-9.8Q205.23-10.5 205.23-11.2L205.23-11.2Q205.23-15 206.73-17.95 208.23-20.9 210.81-22.6 213.38-24.3 216.68-24.3L216.68-24.3Q218.43-24.3 220.13-23.63 221.83-22.95 222.98-21.8L222.98-21.8 222.98-23.85Q223.43-24 224.03-24.1 224.63-24.2 225.28-24.2L225.28-24.2Q226.48-24.2 227.53-23.85L227.53-23.85 227.53-9.2Q227.53-6.55 228.36-5.08 229.18-3.6 231.13-3.6L231.13-3.6Q231.98-3.6 232.28-2.9 232.58-2.2 232.58-1.4L232.58-1.4Q232.58-0.6 232.16 0.05 231.73 0.7 230.78 0.7L230.78 0.7Q225.88 0.7 224.23-3.7L224.23-3.7Q222.78-1.65 220.61-0.48 218.43 0.7 215.78 0.7L215.78 0.7Q212.88 0.7 210.66-0.58 208.43-1.85 207.03-4.1L207.03-4.1Q203.93 0.7 198.88 0.7L198.88 0.7Q198.23 0.7 197.83 0.1 197.43-0.5 197.43-1.45L197.43-1.45Q197.43-3.6 199.23-3.6ZM209.88-11.2L209.88-11.2Q209.88-7.65 211.5-5.63 213.13-3.6 215.98-3.6L215.98-3.6Q219.13-3.6 221.06-5.75 222.98-7.9 222.98-11.4L222.98-11.4 222.98-17Q221.98-18.35 220.43-19.18 218.88-20 217.23-20L217.23-20Q215.08-20 213.43-18.85 211.78-17.7 210.83-15.73 209.88-13.75 209.88-11.2ZM230.78 0.7L230.78 0.7Q230.13 0.7 229.73 0.1 229.33-0.5 229.33-1.45L229.33-1.45Q229.33-2.45 229.8-3.03 230.28-3.6 231.08-3.6L231.08-3.6Q232.68-3.6 234.53-4.75 236.38-5.9 238.13-7.9L238.13-7.9Q237.73-9.75 237.5-12.25 237.28-14.75 237.18-18.3 237.08-21.85 237.08-26.85L237.08-26.85 237.13-26.85 237.08-26.9Q237.08-31.35 237.18-34.45 237.28-37.55 237.58-39.65 237.88-41.75 238.35-43.23 238.83-44.7 239.58-45.9L239.58-45.9Q240.68-47.7 242.3-48.5 243.93-49.3 245.88-49.3L245.88-49.3Q249.78-49.3 251.88-45.85 253.98-42.4 253.98-36.35L253.98-36.35Q253.98-29.1 251.13-21.45 248.28-13.8 242.98-6.85L242.98-6.85Q243.68-5.2 245.03-4.38 246.38-3.55 248.13-3.55L248.13-3.55Q248.83-3.55 249.25-2.98 249.68-2.4 249.68-1.4L249.68-1.4Q249.68 0.7 247.83 0.7L247.83 0.7Q245.13 0.7 243.03-0.45 240.93-1.6 239.78-3.4L239.78-3.4Q235.63 0.7 230.78 0.7ZM241.53-26.6L241.53-26.6Q241.53-21.35 241.6-17.95 241.68-14.55 241.83-12.35L241.83-12.35Q245.63-18.65 247.58-24.68 249.53-30.7 249.53-36.4L249.53-36.4Q249.53-40.55 248.58-42.78 247.63-45 245.88-45L245.88-45Q243.93-45 242.93-42.7L242.93-42.7Q242.43-41.5 242.1-39.68 241.78-37.85 241.65-34.75 241.53-31.65 241.53-26.6ZM275.67 0.35L275.67 0.35Q274.42 0.35 273.37 0L273.37 0 273.37-36.1Q274.57-36.45 275.67-36.45L275.67-36.45Q276.97-36.45 278.02-36.1L278.02-36.1 278.02-20.6 294.97-20.6 294.97-36.1Q296.02-36.45 297.32-36.45L297.32-36.45Q298.42-36.45 299.62-36.1L299.62-36.1 299.62 0Q298.57 0.35 297.32 0.35L297.32 0.35Q296.17 0.35 294.97 0L294.97 0 294.97-16.25 278.02-16.25 278.02 0Q276.82 0.35 275.67 0.35ZM304.22 0.7L304.22 0.7Q303.57 0.7 303.17 0.1 302.77-0.5 302.77-1.45L302.77-1.45Q302.77-3.6 304.57-3.6L304.57-3.6Q306.02-3.6 307.52-4.08 309.02-4.55 311.02-5.7L311.02-5.7Q309.07-9.1 309.07-13.7L309.07-13.7Q309.07-16.8 310.22-19.18 311.37-21.55 313.42-22.93 315.47-24.3 318.07-24.3L318.07-24.3Q320.27-24.3 321.97-23.28 323.67-22.25 324.62-20.45 325.57-18.65 325.57-16.3L325.57-16.3Q325.57-13.1 323.69-10.45 321.82-7.8 317.37-4.7L317.37-4.7Q318.97-3.55 321.67-3.55L321.67-3.55Q322.37-3.55 322.77-2.95 323.17-2.35 323.17-1.35L323.17-1.35Q323.17-0.4 322.72 0.15 322.27 0.7 321.42 0.7L321.42 0.7Q319.02 0.7 316.92-0.1 314.82-0.9 313.42-2.3L313.42-2.3Q308.62 0.7 304.22 0.7ZM313.42-14.1L313.42-14.1Q313.42-10.15 314.82-7.8L314.82-7.8Q318.07-10.05 319.64-12.2 321.22-14.35 321.22-16.3L321.22-16.3Q321.22-18.1 320.35-19.13 319.47-20.15 317.92-20.15L317.92-20.15Q315.97-20.15 314.69-18.4 313.42-16.65 313.42-14.1ZM326.67-3.6L326.67-3.6Q328.37-3.6 329.99-5.28 331.62-6.95 332.72-9.8L332.72-9.8Q332.67-10.5 332.67-11.2L332.67-11.2Q332.67-15 334.17-17.95 335.67-20.9 338.24-22.6 340.82-24.3 344.12-24.3L344.12-24.3Q345.87-24.3 347.57-23.63 349.27-22.95 350.42-21.8L350.42-21.8 350.42-23.85Q350.87-24 351.47-24.1 352.07-24.2 352.72-24.2L352.72-24.2Q353.92-24.2 354.97-23.85L354.97-23.85 354.97-9.2Q354.97-6.55 355.79-5.08 356.62-3.6 358.57-3.6L358.57-3.6Q359.42-3.6 359.72-2.9 360.02-2.2 360.02-1.4L360.02-1.4Q360.02-0.6 359.59 0.05 359.17 0.7 358.22 0.7L358.22 0.7Q353.32 0.7 351.67-3.7L351.67-3.7Q350.22-1.65 348.04-0.48 345.87 0.7 343.22 0.7L343.22 0.7Q340.32 0.7 338.09-0.58 335.87-1.85 334.47-4.1L334.47-4.1Q331.37 0.7 326.32 0.7L326.32 0.7Q325.67 0.7 325.27 0.1 324.87-0.5 324.87-1.45L324.87-1.45Q324.87-3.6 326.67-3.6ZM337.32-11.2L337.32-11.2Q337.32-7.65 338.94-5.63 340.57-3.6 343.42-3.6L343.42-3.6Q346.57-3.6 348.49-5.75 350.42-7.9 350.42-11.4L350.42-11.4 350.42-17Q349.42-18.35 347.87-19.18 346.32-20 344.67-20L344.67-20Q342.52-20 340.87-18.85 339.22-17.7 338.27-15.73 337.32-13.75 337.32-11.2ZM358.22 0.7L358.22 0.7Q357.56 0.7 357.17 0.1 356.76-0.5 356.76-1.45L356.76-1.45Q356.76-3.6 358.56-3.6L358.56-3.6Q360.17-3.6 361.44-5.23 362.72-6.85 363.67-10.65L363.67-10.65 365.17-16.5Q367.26-24.3 373.17-24.3L373.17-24.3Q375.81-24.3 377.69-22.23 379.56-20.15 379.56-16.6L379.56-16.6 379.56-9.05Q379.56-3.6 382.76-3.6L382.76-3.6Q384.81-3.6 386.56-5.25 388.31-6.9 389.39-9.58 390.47-12.25 390.47-15.3L390.47-15.3Q390.47-15.7 390.47-16.1L390.47-16.1Q388.12-17 386.81-18.5L386.81-18.5Q386.97-20.1 387.67-21.43 388.37-22.75 389.39-23.53 390.42-24.3 391.37-24.3L391.37-24.3Q393.01-24.3 394.04-21.88 395.06-19.45 395.06-15.7L395.06-15.7Q395.06-11.05 393.39-7.33 391.72-3.6 388.81-1.45 385.92 0.7 382.26 0.7L382.26 0.7Q378.92 0.7 376.97-1.68 375.01-4.05 375.01-8.1L375.01-8.1 375.01-15.95Q375.01-18.15 374.37-19.07 373.72-20 372.76-20L372.76-20Q371.72-20 370.97-19.05 370.22-18.1 369.67-16L369.67-16 367.81-8.8Q366.51-3.85 364.22-1.58 361.92 0.7 358.22 0.7ZM398.26 0.7L398.26 0.7Q397.61 0.7 397.21 0.1 396.81-0.5 396.81-1.45L396.81-1.45Q396.81-3.6 398.61-3.6L398.61-3.6Q400.06-3.6 401.56-4.08 403.06-4.55 405.06-5.7L405.06-5.7Q403.11-9.1 403.11-13.7L403.11-13.7Q403.11-16.8 404.26-19.18 405.41-21.55 407.46-22.93 409.51-24.3 412.11-24.3L412.11-24.3Q414.31-24.3 416.01-23.28 417.71-22.25 418.66-20.45 419.61-18.65 419.61-16.3L419.61-16.3Q419.61-13.1 417.74-10.45 415.86-7.8 411.41-4.7L411.41-4.7Q413.01-3.55 415.71-3.55L415.71-3.55Q416.41-3.55 416.81-2.95 417.21-2.35 417.21-1.35L417.21-1.35Q417.21-0.4 416.76 0.15 416.31 0.7 415.46 0.7L415.46 0.7Q413.06 0.7 410.96-0.1 408.86-0.9 407.46-2.3L407.46-2.3Q402.66 0.7 398.26 0.7ZM407.46-14.1L407.46-14.1Q407.46-10.15 408.86-7.8L408.86-7.8Q412.11-10.05 413.69-12.2 415.26-14.35 415.26-16.3L415.26-16.3Q415.26-18.1 414.39-19.13 413.51-20.15 411.96-20.15L411.96-20.15Q410.01-20.15 408.74-18.4 407.46-16.65 407.46-14.1ZM420.36 0.7L420.36 0.7Q419.71 0.7 419.31 0.1 418.91-0.5 418.91-1.45L418.91-1.45Q418.91-3.6 420.71-3.6L420.71-3.6Q422.31-3.6 423.59-5.23 424.86-6.85 425.81-10.65L425.81-10.65 427.31-16.5Q429.41-24.3 435.31-24.3L435.31-24.3Q437.56-24.3 439.11-22.98 440.66-21.65 441.26-19.4L441.26-19.4Q442.66-21.75 444.86-23.03 447.06-24.3 449.76-24.3L449.76-24.3Q453.66-24.3 455.79-21.75 457.91-19.2 457.91-14.6L457.91-14.6 457.91-8.75Q457.91-6 458.64-4.8 459.36-3.6 460.96-3.6L460.96-3.6Q461.66-3.6 462.04-3 462.41-2.4 462.41-1.4L462.41-1.4Q462.41-0.6 461.99 0.05 461.56 0.7 460.61 0.7L460.61 0.7Q453.36 0.7 453.36-8.2L453.36-8.2 453.36-14.6Q453.36-20 449.11-20L449.11-20Q446.91-20 445.24-18.25 443.56-16.5 442.64-13.4 441.71-10.3 441.71-6.2L441.71-6.2 441.71 0Q441.21 0.15 440.61 0.25 440.01 0.35 439.46 0.35L439.46 0.35Q438.26 0.35 437.21 0L437.21 0 437.21-15.95Q437.21-17.9 436.71-18.95 436.21-20 434.91-20L434.91-20Q433.86-20 433.11-19.05 432.36-18.1 431.81-16L431.81-16 429.96-8.8Q428.66-3.85 426.36-1.58 424.06 0.7 420.36 0.7ZM495.06-12L480.86-12Q480.46-13 480.46-14.38 480.46-15.75 480.86-16.65L480.86-16.65 495.06-16.65Q495.46-15.75 495.46-14.38 495.46-13 495.06-12L495.06-12Z" opacity="1" transform="matrix(1,0,0,1,0,0)" fill="#dfe2e2" class="wordmark-text-0" data-fill-palette-color="quaternary" id="text-0"></path></svg></g></svg></g></svg></g></svg></g><g></g></svg></g></svg></g><defs></defs></svg><rect width="395.52" height="81.36843431053202" fill="none" stroke="none" visibility="hidden"></rect></g></svg></g></svg>